<svg width="38" height="39" viewBox="0 0 38 39" fill="none" xmlns="http://www.w3.org/2000/svg">
<path id="Vector" d="M24.3856 33.36C25.9165 33.8415 27.5028 34.0851 29.097 34.0833C31.6607 34.0873 34.1911 33.454 36.4934 32.2322C36.5614 30.4894 36.1032 28.7701 35.1882 27.3348C34.2731 25.8995 32.9511 24.8265 31.4225 24.2785C29.8939 23.7304 28.2421 23.7372 26.7174 24.2977C25.1926 24.8582 23.8781 25.942 22.9731 27.3847M24.3856 33.36V33.3541C24.3856 31.19 23.8723 29.1541 22.9731 27.3847M24.3856 33.36V33.5661C20.9315 35.8199 16.9741 37.0073 12.9419 37C8.75821 37 4.84373 35.7458 1.5018 33.5661L1.5 33.3541C1.49862 30.6017 2.34287 27.9271 3.89963 25.7519C5.45639 23.5767 7.63712 22.0247 10.098 21.3406C12.5589 20.6565 15.16 20.8791 17.4911 21.9735C19.8223 23.0678 21.751 24.9716 22.9731 27.3847M19.0012 8.56249C19.0012 10.303 18.363 11.9722 17.227 13.2029C16.091 14.4336 14.5502 15.125 12.9437 15.125C11.3372 15.125 9.79641 14.4336 8.66042 13.2029C7.52442 11.9722 6.88622 10.303 6.88622 8.56249C6.88622 6.82201 7.52442 5.15282 8.66042 3.92211C9.79641 2.6914 11.3372 2 12.9437 2C14.5502 2 16.091 2.6914 17.227 3.92211C18.363 5.15282 19.0012 6.82201 19.0012 8.56249ZM33.8083 12.9375C33.8083 14.2912 33.312 15.5895 32.4284 16.5467C31.5449 17.5039 30.3465 18.0417 29.097 18.0417C27.8474 18.0417 26.6491 17.5039 25.7655 16.5467C24.882 15.5895 24.3856 14.2912 24.3856 12.9375C24.3856 11.5838 24.882 10.2855 25.7655 9.3283C26.6491 8.37109 27.8474 7.83333 29.097 7.83333C30.3465 7.83333 31.5449 8.37109 32.4284 9.3283C33.312 10.2855 33.8083 11.5838 33.8083 12.9375Z" stroke="#4A4A4A" stroke-width="3" stroke-linecap="round" stroke-linejoin="round"/>
</svg>
